<svg width="8" height="22" viewBox="0 0 8 22" fill="none" xmlns="http://www.w3.org/2000/svg">
<path d="M4.0001 6.1999C2.67461 6.1999 1.6001 5.12539 1.6001 3.7999C1.6001 2.47442 2.67461 1.3999 4.0001 1.3999C5.32558 1.3999 6.4001 2.47442 6.4001 3.7999C6.4001 5.12539 5.32558 6.1999 4.0001 6.1999Z" stroke="black" stroke-width="2"/>
<path d="M4.0001 13.3999C2.67461 13.3999 1.6001 12.3254 1.6001 10.9999C1.6001 9.67442 2.67461 8.5999 4.0001 8.5999C5.32558 8.5999 6.4001 9.67442 6.4001 10.9999C6.4001 12.3254 5.32558 13.3999 4.0001 13.3999Z" stroke="black" stroke-width="2"/>
<path d="M4.0001 20.5999C2.67461 20.5999 1.6001 19.5254 1.6001 18.1999C1.6001 16.8744 2.67461 15.7999 4.0001 15.7999C5.32558 15.7999 6.4001 16.8744 6.4001 18.1999C6.4001 19.5254 5.32558 20.5999 4.0001 20.5999Z" stroke="black" stroke-width="2"/>
</svg>
