<svg width="19" height="19" viewBox="0 0 19 19" fill="none" xmlns="http://www.w3.org/2000/svg">
<path d="M9.49998 6.50596C7.85135 6.50596 6.50594 7.85137 6.50594 9.5C6.50594 11.1486 7.85135 12.494 9.49998 12.494C11.1486 12.494 12.494 11.1486 12.494 9.5C12.494 7.85137 11.1486 6.50596 9.49998 6.50596ZM18.4799 9.5C18.4799 8.26015 18.4911 7.03154 18.4215 5.79394C18.3518 4.35644 18.0239 3.08066 16.9727 2.02949C15.9193 0.976073 14.6458 0.65039 13.2083 0.580761C11.9684 0.511132 10.7398 0.522362 9.50223 0.522362C8.26239 0.522362 7.03377 0.511132 5.79618 0.580761C4.35868 0.65039 3.08289 0.978319 2.03172 2.02949C0.978305 3.08291 0.652621 4.35644 0.582992 5.79394C0.513363 7.03379 0.524594 8.2624 0.524594 9.5C0.524594 10.7376 0.513363 11.9685 0.582992 13.2061C0.652621 14.6436 0.980551 15.9193 2.03172 16.9705C3.08514 18.0239 4.35868 18.3496 5.79618 18.4192C7.03602 18.4889 8.26463 18.4776 9.50223 18.4776C10.7421 18.4776 11.9707 18.4889 13.2083 18.4192C14.6458 18.3496 15.9216 18.0217 16.9727 16.9705C18.0262 15.9171 18.3518 14.6436 18.4215 13.2061C18.4933 11.9685 18.4799 10.7398 18.4799 9.5V9.5ZM9.49998 14.1067C6.95067 14.1067 4.89325 12.0493 4.89325 9.5C4.89325 6.95068 6.95067 4.89326 9.49998 4.89326C12.0493 4.89326 14.1067 6.95068 14.1067 9.5C14.1067 12.0493 12.0493 14.1067 9.49998 14.1067ZM14.2954 5.78047C13.7002 5.78047 13.2195 5.2998 13.2195 4.70459C13.2195 4.10937 13.7002 3.62871 14.2954 3.62871C14.8906 3.62871 15.3713 4.10937 15.3713 4.70459C15.3715 4.84592 15.3437 4.98591 15.2897 5.11652C15.2357 5.24713 15.1565 5.36581 15.0566 5.46575C14.9566 5.56569 14.8379 5.64493 14.7073 5.69893C14.5767 5.75294 14.4367 5.78064 14.2954 5.78047V5.78047Z" fill="#fff" fill-opacity="1"/>
</svg>
