<svg width="19" height="20" viewBox="0 0 19 20" fill="none" xmlns="http://www.w3.org/2000/svg">
<path d="M2.24 17L6.24 16C6.41745 15.9578 6.57998 15.8679 6.71 15.74L16.29 6.15C16.8518 5.5875 17.1674 4.825 17.1674 4.03C17.1674 3.235 16.8518 2.4725 16.29 1.91L16.12 1.74C15.5575 1.1782 14.795 0.86264 14 0.86264C13.205 0.86264 12.4425 1.1782 11.88 1.74L2.29 11.29C2.1621 11.42 2.07219 11.5826 2.03 11.76L1.03 15.76C0.982392 15.929 0.980139 16.1076 1.02347 16.2778C1.0668 16.448 1.15419 16.6038 1.27684 16.7295C1.39949 16.8552 1.55309 16.9464 1.72216 16.9939C1.89124 17.0413 2.06984 17.0435 2.24 17ZM14 2.83C14.1316 2.82924 14.2621 2.85446 14.3839 2.90423C14.5057 2.95399 14.6166 3.02732 14.71 3.12L14.88 3.29C14.9737 3.38296 15.0481 3.49356 15.0989 3.61542C15.1497 3.73728 15.1758 3.86799 15.1758 4C15.1758 4.13201 15.1497 4.26272 15.0989 4.38458C15.0481 4.50644 14.9737 4.61704 14.88 4.71L13.48 6.1L11.9 4.52L13.29 3.12C13.3834 3.02732 13.4943 2.95399 13.6161 2.90423C13.7379 2.85446 13.8684 2.82924 14 2.83ZM3.9 12.51L10.48 5.93L12.07 7.52L5.49 14.1L3.37 14.63L3.9 12.51ZM19 19C19 19.2652 18.8946 19.5196 18.7071 19.7071C18.5196 19.8946 18.2652 20 18 20H2C1.73479 20 1.48043 19.8946 1.2929 19.7071C1.10536 19.5196 1 19.2652 1 19C1 18.7348 1.10536 18.4804 1.2929 18.2929C1.48043 18.1054 1.73479 18 2 18H18C18.2652 18 18.5196 18.1054 18.7071 18.2929C18.8946 18.4804 19 18.7348 19 19ZM11 14H18C18.2652 14 18.5196 14.1054 18.7071 14.2929C18.8946 14.4804 19 14.7348 19 15C19 15.2652 18.8946 15.5196 18.7071 15.7071C18.5196 15.8946 18.2652 16 18 16H11C10.7348 16 10.4804 15.8946 10.2929 15.7071C10.1054 15.5196 10 15.2652 10 15C10 14.7348 10.1054 14.4804 10.2929 14.2929C10.4804 14.1054 10.7348 14 11 14Z" fill="#222221"/>
</svg>
