<svg width="19" height="16" viewBox="0 0 19 16" fill="none" xmlns="http://www.w3.org/2000/svg">
<path d="M18.6525 2.25C17.9788 2.55625 17.2525 2.7575 16.5 2.85375C17.27 2.39 17.865 1.655 18.145 0.77125C17.4188 1.20875 16.6138 1.515 15.765 1.69C15.0738 0.9375 14.1025 0.5 13 0.5C10.9438 0.5 9.26378 2.18 9.26378 4.25375C9.26378 4.55125 9.29878 4.84 9.36003 5.11125C6.24503 4.95375 3.47128 3.4575 1.62503 1.19125C1.30128 1.7425 1.11753 2.39 1.11753 3.0725C1.11753 4.37625 1.77378 5.53125 2.78878 6.1875C2.16753 6.1875 1.59003 6.0125 1.08253 5.75V5.77625C1.08253 7.59625 2.37753 9.11875 4.09253 9.46C3.54192 9.61068 2.96387 9.63165 2.40378 9.52125C2.64144 10.2672 3.10688 10.9199 3.73467 11.3876C4.36247 11.8553 5.12105 12.1145 5.90378 12.1288C4.57696 13.1791 2.93228 13.7469 1.24003 13.7387C0.942534 13.7387 0.645034 13.7212 0.347534 13.6862C2.01003 14.7537 3.98753 15.375 6.10503 15.375C13 15.375 16.7888 9.6525 16.7888 4.69125C16.7888 4.525 16.7888 4.3675 16.78 4.20125C17.515 3.67625 18.145 3.01125 18.6525 2.25V2.25Z" fill="#8685EF" fill-opacity="0.7"/>
</svg>
